<!-- Generated by IcoMoon.io -->
<svg version="1.1" xmlns="http://www.w3.org/2000/svg" width="96" height="96" viewBox="0 0 96 96">
<title></title>
<g id="icomoon-ignore">
</g>
<path fill="#000" d="M95.363 27.9c0-8.438-6.206-15.225-13.875-15.225-10.388-0.487-20.981-0.675-31.8-0.675-0.563 0-1.125 0-1.688 0s-1.125 0-1.688 0c-10.8 0-21.412 0.188-31.8 0.675-7.65 0-13.856 6.825-13.856 15.262-0.469 6.675-0.675 13.35-0.656 20.025-0.019 6.675 0.188 13.35 0.637 20.044 0 8.438 6.206 15.281 13.856 15.281 10.912 0.506 22.106 0.731 33.487 0.713 11.4 0.037 22.556-0.188 33.487-0.713 7.669 0 13.875-6.844 13.875-15.281 0.45-6.694 0.656-13.369 0.637-20.063 0.038-6.675-0.169-13.35-0.619-20.044zM38.813 66.356v-36.844l27.188 18.413-27.188 18.431z"></path>
</svg>
